# xmcd
#
# Track frame offsets: 
#        150
#        23950
#        48615
#        65818
#        91178
#        114242
#        134465
#        160340
#        186344
#        211071
#        237171
#
# Disc length: 3371 seconds
#
# Revision: 1
# Processed by: cddbd v1.5.2PL0 Copyright (c) Steve Scherf et al.
# Submitted via: ExactAudioCopy v1.0b3
#
DISCID=980d290b
DTITLE=Quang Le, Tam Doan - Tam Su Nguoi Linh Tre
DYEAR=2007
DGENRE=Pop
TTITLE0=Quang Le - Bien Man
TTITLE1=Tam Doan - Tu Do Em Buon
TTITLE2=Quang Le - Yeu Nguoi Nhu The Do
TTITLE3=Tam Doan - Ta Tu Trong Dem
TTITLE4=Khong Bao Gio Ngan Cach
TTITLE5=Quang Le - Chuyen Hen Ho
TTITLE6=Tam Doan - Tinh Thien Thu
TTITLE7=Quang Le - Tam Su Nguoi Linh Tre
TTITLE8=Anh Ve Voi Em
TTITLE9=Tam Doan - Chuyen Mot Nguoi Di
TTITLE10=Tam Doan - Tinh Co Nhu Khong
EXTD=
EXTT0=
EXTT1=
EXTT2=
EXTT3=
EXTT4=
EXTT5=
EXTT6=
EXTT7=
EXTT8=
EXTT9=
EXTT10=
PLAYORDER=
